<svg width="93" height="32" viewBox="0 0 93 32" fill="none" xmlns="http://www.w3.org/2000/svg">
<path d="M1.27592 23V8.45455H4.35121V20.4645H10.587V23H1.27592ZM17.5384 23.2131C16.4162 23.2131 15.4503 22.9858 14.6406 22.5312C13.8357 22.072 13.2154 21.4233 12.7798 20.5852C12.3442 19.7424 12.1264 18.7457 12.1264 17.5952C12.1264 16.473 12.3442 15.4882 12.7798 14.6406C13.2154 13.7931 13.8286 13.1326 14.6193 12.6591C15.4148 12.1856 16.3475 11.9489 17.4176 11.9489C18.1373 11.9489 18.8073 12.0649 19.4276 12.2969C20.0526 12.5241 20.5971 12.8674 21.0611 13.3267C21.5298 13.786 21.8944 14.3636 22.1548 15.0597C22.4152 15.7509 22.5455 16.5606 22.5455 17.4886V18.3196H13.3338V16.4446H19.6974C19.6974 16.009 19.6027 15.6231 19.4134 15.2869C19.224 14.9508 18.9612 14.688 18.625 14.4986C18.2936 14.3045 17.9077 14.2074 17.4673 14.2074C17.008 14.2074 16.6009 14.3139 16.2457 14.527C15.8954 14.7353 15.6207 15.017 15.4219 15.3722C15.223 15.7225 15.1212 16.1132 15.1165 16.544V18.3267C15.1165 18.8665 15.2159 19.3329 15.4148 19.7259C15.6184 20.1188 15.9048 20.4219 16.2741 20.6349C16.6435 20.848 17.0814 20.9545 17.5881 20.9545C17.9242 20.9545 18.232 20.9072 18.5114 20.8125C18.7907 20.7178 19.0298 20.5758 19.2287 20.3864C19.4276 20.197 19.5791 19.965 19.6832 19.6903L22.4815 19.875C22.3395 20.5473 22.0483 21.1345 21.608 21.6364C21.1723 22.1335 20.6089 22.5218 19.9176 22.8011C19.2311 23.0758 18.438 23.2131 17.5384 23.2131ZM28.5398 23.1776C27.7112 23.1776 26.9607 22.9645 26.2884 22.5384C25.6207 22.1075 25.0904 21.4754 24.6974 20.642C24.3092 19.804 24.1151 18.7765 24.1151 17.5597C24.1151 16.3097 24.3163 15.2704 24.7188 14.4418C25.1212 13.6084 25.6563 12.9858 26.3239 12.5739C26.9962 12.1572 27.7325 11.9489 28.5327 11.9489C29.1435 11.9489 29.6525 12.053 30.0597 12.2614C30.4716 12.465 30.803 12.7206 31.054 13.0284C31.3097 13.3314 31.5038 13.6297 31.6364 13.9233H31.7287V8.45455H34.7472V23H31.7642V21.2528H31.6364C31.4943 21.5559 31.2931 21.8565 31.0327 22.1548C30.777 22.4484 30.4432 22.6922 30.0312 22.8864C29.6241 23.0805 29.1269 23.1776 28.5398 23.1776ZM29.4986 20.7699C29.9863 20.7699 30.3982 20.6373 30.7344 20.3722C31.0753 20.1023 31.3357 19.7259 31.5156 19.2429C31.7003 18.7599 31.7926 18.1941 31.7926 17.5455C31.7926 16.8968 31.7027 16.3333 31.5227 15.8551C31.3428 15.3769 31.0824 15.0076 30.7415 14.7472C30.4006 14.4867 29.9863 14.3565 29.4986 14.3565C29.0014 14.3565 28.5824 14.4915 28.2415 14.7614C27.9006 15.0312 27.6425 15.4053 27.4673 15.8835C27.2921 16.3617 27.2045 16.9157 27.2045 17.5455C27.2045 18.1799 27.2921 18.741 27.4673 19.2287C27.6473 19.7116 27.9053 20.0904 28.2415 20.3651C28.5824 20.6349 29.0014 20.7699 29.4986 20.7699ZM42.1495 27.3182C41.1694 27.3182 40.329 27.1832 39.6282 26.9134C38.9322 26.6482 38.3782 26.286 37.9663 25.8267C37.5543 25.3674 37.2868 24.8513 37.1637 24.2784L39.962 23.902C40.0472 24.1198 40.1822 24.3234 40.3668 24.5128C40.5515 24.7022 40.7953 24.8537 41.0984 24.9673C41.4061 25.0857 41.7802 25.1449 42.2205 25.1449C42.8787 25.1449 43.4208 24.9839 43.8469 24.6619C44.2778 24.3447 44.4933 23.812 44.4933 23.0639V21.0682H44.3654C44.2328 21.3712 44.034 21.6577 43.7688 21.9276C43.5037 22.1974 43.1628 22.4176 42.7461 22.5881C42.3294 22.7585 41.8323 22.8438 41.2546 22.8438C40.4355 22.8438 39.6897 22.6544 39.0174 22.2756C38.3498 21.892 37.8171 21.3073 37.4194 20.5213C37.0264 19.7306 36.8299 18.7315 36.8299 17.5241C36.8299 16.2884 37.0311 15.2562 37.4336 14.4276C37.8361 13.599 38.3711 12.9787 39.0387 12.5668C39.7111 12.1548 40.4473 11.9489 41.2475 11.9489C41.8583 11.9489 42.3697 12.053 42.7816 12.2614C43.1935 12.465 43.525 12.7206 43.7759 13.0284C44.0316 13.3314 44.2281 13.6297 44.3654 13.9233H44.479V12.0909H47.4833V23.1065C47.4833 24.0346 47.256 24.8111 46.8015 25.4361C46.3469 26.0611 45.7172 26.5298 44.9123 26.8423C44.1121 27.1596 43.1912 27.3182 42.1495 27.3182ZM42.2134 20.571C42.7011 20.571 43.113 20.4503 43.4492 20.2088C43.7901 19.9626 44.0505 19.6122 44.2305 19.1577C44.4151 18.6984 44.5075 18.1491 44.5075 17.5099C44.5075 16.8707 44.4175 16.3168 44.2376 15.848C44.0576 15.3745 43.7972 15.0076 43.4563 14.7472C43.1154 14.4867 42.7011 14.3565 42.2134 14.3565C41.7163 14.3565 41.2972 14.4915 40.9563 14.7614C40.6154 15.0265 40.3574 15.3958 40.1822 15.8693C40.007 16.3428 39.9194 16.8897 39.9194 17.5099C39.9194 18.1397 40.007 18.6842 40.1822 19.1435C40.3621 19.598 40.6201 19.9508 40.9563 20.2017C41.2972 20.4479 41.7163 20.571 42.2134 20.571ZM54.8626 23.2131C53.7404 23.2131 52.7745 22.9858 51.9648 22.5312C51.1599 22.072 50.5397 21.4233 50.104 20.5852C49.6684 19.7424 49.4506 18.7457 49.4506 17.5952C49.4506 16.473 49.6684 15.4882 50.104 14.6406C50.5397 13.7931 51.1528 13.1326 51.9435 12.6591C52.739 12.1856 53.6718 11.9489 54.7418 11.9489C55.4615 11.9489 56.1315 12.0649 56.7518 12.2969C57.3768 12.5241 57.9213 12.8674 58.3853 13.3267C58.854 13.786 59.2186 14.3636 59.479 15.0597C59.7395 15.7509 59.8697 16.5606 59.8697 17.4886V18.3196H50.658V16.4446H57.0217C57.0217 16.009 56.927 15.6231 56.7376 15.2869C56.5482 14.9508 56.2854 14.688 55.9492 14.4986C55.6178 14.3045 55.2319 14.2074 54.7915 14.2074C54.3323 14.2074 53.9251 14.3139 53.57 14.527C53.2196 14.7353 52.945 15.017 52.7461 15.3722C52.5472 15.7225 52.4454 16.1132 52.4407 16.544V18.3267C52.4407 18.8665 52.5401 19.3329 52.739 19.7259C52.9426 20.1188 53.229 20.4219 53.5984 20.6349C53.9677 20.848 54.4057 20.9545 54.9123 20.9545C55.2485 20.9545 55.5562 20.9072 55.8356 20.8125C56.1149 20.7178 56.354 20.5758 56.5529 20.3864C56.7518 20.197 56.9033 19.965 57.0075 19.6903L59.8058 19.875C59.6637 20.5473 59.3725 21.1345 58.9322 21.6364C58.4966 22.1335 57.9331 22.5218 57.2418 22.8011C56.5553 23.0758 55.7622 23.2131 54.8626 23.2131ZM61.8441 23V12.0909H64.7773V13.9943H64.891C65.0898 13.3172 65.4237 12.8059 65.8924 12.4602C66.3612 12.1098 66.9009 11.9347 67.5117 11.9347C67.6632 11.9347 67.8266 11.9441 68.0018 11.9631C68.177 11.982 68.3308 12.008 68.4634 12.0412V14.7259C68.3214 14.6832 68.1249 14.6454 67.8739 14.6122C67.623 14.5791 67.3933 14.5625 67.185 14.5625C66.7399 14.5625 66.3422 14.6596 65.9918 14.8537C65.6462 15.0431 65.3716 15.3082 65.168 15.6491C64.9691 15.9901 64.8697 16.383 64.8697 16.8281V23H61.8441Z" fill="#090A0A"/>
<path d="M73.0533 8.45455V23H70.0277V8.45455H73.0533ZM77.3448 27.0909C76.9613 27.0909 76.6014 27.0601 76.2653 26.9986C75.9338 26.9418 75.6592 26.8684 75.4414 26.7784L76.1232 24.5199C76.4783 24.6288 76.7979 24.688 77.082 24.6974C77.3709 24.7069 77.6194 24.6406 77.8278 24.4986C78.0408 24.3565 78.2137 24.1151 78.3462 23.7741L78.5238 23.3125L74.6104 12.0909H77.7923L80.0508 20.1023H80.1644L82.4442 12.0909H85.6474L81.4073 24.179C81.2037 24.7661 80.9267 25.2775 80.5763 25.7131C80.2307 26.1534 79.7927 26.492 79.2624 26.7287C78.7321 26.9702 78.0929 27.0909 77.3448 27.0909Z" fill="#7519EB"/>
<path d="M92.7635 8.45455L90.7749 18.5469H87.8771L89.2195 8.45455H92.7635ZM88.7223 23.206C88.2062 23.206 87.7848 23.026 87.4581 22.6662C87.1314 22.3063 86.9893 21.8707 87.032 21.3594C87.0793 20.8575 87.3018 20.429 87.6996 20.0739C88.0973 19.7187 88.5518 19.5412 89.0632 19.5412C89.5509 19.5412 89.9605 19.7187 90.2919 20.0739C90.6281 20.429 90.7725 20.8575 90.7251 21.3594C90.6967 21.7003 90.5807 22.0104 90.3771 22.2898C90.1783 22.5691 89.9321 22.7917 89.6385 22.9574C89.3449 23.1231 89.0395 23.206 88.7223 23.206Z" fill="#7519EB"/>
</svg>